#!OML:ASF F:\VICON\USERDATA\INSTALL\Justin_Nancy\Justin_Nancy.ASF
:FULLY-SPECIFIED
:DEGREES
173
root -2.81916 17.2012 5.12154 -78.2452 -78.1886 82.4969
lowerback 8.11326 0.675068 -8.17613
upperback -0.509172 0.0136334 -1.06739
thorax -5.10971 0.198337 3.47685
lowerneck -19.3518 -4.0956 -10.7865
upperneck 23.4964 -4.44345 6.85298
head 11.2354 -2.21996 3.62203
rclavicle -2.38542e-015 4.37326e-014
rhumerus -48.3499 -24.44 -65.2348
rradius 24.6719
rwrist 11.9549
rhand -15.1867 9.01359
rfingers 7.12502
rthumb 10.9847 -20.679
lclavicle -2.38542e-015 4.37326e-014
lhumerus -29.0443 16.9365 72.7403
lradius 36.408
lwrist 1.02565
lhand -22.7064 24.0581
lfingers 7.12502
lthumb 3.72659 54.0053
rfemur -28.215 -4.33196 13.8353
rtibia 77.4325
rfoot -7.92038 -0.678916
rtoes 14.3973
lfemur -12.6946 -6.04405 -29.2862
ltibia 27.1664
lfoot -17.092 -8.63331
ltoes 3.18927
174
root -2.97713 17.1967 5.18357 -74.9758 -80.7144 79.2895
lowerback 8.62932 0.461582 -5.3745
upperback -0.607104 0.0129413 -0.501645
thorax -5.49024 0.149629 2.49831
lowerneck -19.4455 -4.03813 -10.8407
upperneck 23.5014 -4.39447 7.07635
head 11.2564 -2.17348 3.72264
rclavicle 4.67144e-015 9.54166e-015
rhumerus -48.413 -23.4015 -66.4249
rradius 25.5317
rwrist 9.60813
rhand -14.5799 9.19786
rfingers 7.12502
rthumb 11.5699 -20.4628
lclavicle 4.67144e-015 9.54166e-015
lhumerus -28.3777 16.1826 72.9169
lradius 36.4571
lwrist 1.4451
lhand -21.5665 23.8236
lfingers 7.12502
lthumb 4.82739 53.7486
rfemur -30.129 -3.70471 17.4555
rtibia 76.6025
rfoot -8.77375 -1.15934
rtoes 15.8766
lfemur -12.4318 -5.15895 -26.5181
ltibia 27.3167
lfoot -17.3499 -9.76745
ltoes 5.32801
175
root -3.17409 17.1929 5.21181 -72.4479 -81.1968 77.1752
lowerback 8.45606 0.251781 -5.46741
upperback -0.789796 -0.242236 -0.0830354
thorax -5.56158 0.0410787 3.02255
lowerneck -19.4887 -3.93325 -11.0745
upperneck 23.6187 -4.14559 6.97923
head 11.2869 -2.09619 3.76738
rclavicle -3.67752e-015 7.15625e-015
rhumerus -48.5526 -22.1653 -67.0754
rradius 26.4943
rwrist 7.75602
rhand -13.669 9.1627
rfingers 7.12502
rthumb 12.4483 -20.4466
lclavicle -3.67752e-015 7.15625e-015
lhumerus -28.2765 16.3264 73.2492
lradius 36.7393
lwrist 1.14206
lhand -19.6408 23.1478
lfingers 7.12502
lthumb 6.68658 53.0222
rfemur -32.2398 -3.33012 18.5505
rtibia 75.7595
rfoot -9.91338 -0.83445
rtoes 17.6227
lfemur -12.2227 -4.41978 -25.9704
ltibia 27.3926
lfoot -17.8293 -10.6751
ltoes 6.7589
176
root -3.40217 17.186 5.27876 -76.645 -80.3591 81.1756
lowerback 8.49756 0.296392 -6.75009
upperback -0.697474 -0.323421 -0.158984
thorax -5.47978 0.0319203 3.67593
lowerneck -19.3226 -3.71154 -10.511
upperneck 23.449 -3.798 6.17305
head 11.1254 -1.98604 3.42256
rclavicle 3.08116e-015 -1.03368e-014
rhumerus -48.7784 -21.1315 -67.642
rradius 27.4244
rwrist 7.22576
rhand -13.9027 9.00753
rfingers 7.12502
rthumb 12.2229 -20.6153
lclavicle 3.08116e-015 -1.03368e-014
lhumerus -28.2121 16.3932 73.5295
lradius 37.0373
lwrist 0.861821
lhand -19.4159 23.1567
lfingers 7.12502
lthumb 6.90371 53.0241
rfemur -33.4897 -2.86445 17.479
rtibia 74.7562
rfoot -11.0519 0.325878
rtoes 19.5142
lfemur -11.0645 -4.02146 -27.4202
ltibia 27.5861
lfoot -18.7886 -10.1244
ltoes 5.52826
177
root -3.63011 17.1393 5.3742 -81.327 -78.873 85.3005
lowerback 8.75979 0.479419 -8.15051
upperback -0.404026 -0.274406 -0.62326
thorax -5.3268 0.0698525 3.96938
lowerneck -18.9821 -3.64562 -9.80071
upperneck 22.9269 -3.75449 5.49972
head 10.8325 -1.97825 3.05401
rclavicle 1.09332e-015 -9.54166e-015
rhumerus -48.928 -20.5255 -68.2435
rradius 28.1951
rwrist 6.75473
rhand -14.5012 9.01845
rfingers 7.12502
rthumb 11.6458 -20.6379
lclavicle 1.09332e-015 -9.54166e-015
lhumerus -27.9279 15.7671 73.7697
lradius 37.4034
lwrist 1.1967
lhand -20.0385 23.7733
lfingers 7.12502
lthumb 6.30268 53.6595
rfemur -34.236 -3.05138 15.9041
rtibia 73.567
rfoot -11.7665 -0.30567
rtoes 11.1982
lfemur -9.25877 -3.23466 -29.6661
ltibia 27.2934
lfoot -19.4865 -9.99203
ltoes 4.7695
178
root -3.83792 17.0857 5.45469 -82.9763 -78.1932 86.6061
lowerback 9.17427 0.508216 -8.78985
upperback -0.278221 -0.359455 -0.820344
thorax -5.4181 0.039226 4.13414
lowerneck -19.1136 -3.6002 -9.9296
upperneck 22.9514 -3.66291 5.60417
head 10.8633 -1.93324 3.12783
rclavicle -3.18055e-015 -2.38542e-015
rhumerus -49.0506 -19.9456 -68.7247
rradius 28.8862
rwrist 6.23575
rhand -14.7536 8.76377
rfingers 7.12502
rthumb 11.4024 -20.9062
lclavicle -3.18055e-015 -2.38542e-015
lhumerus -27.8203 15.3159 73.9331
lradius 37.8924
lwrist 1.42443
lhand -20.2031 24.3222
lfingers 7.12502
lthumb 6.14377 54.2131
rfemur -35.2026 -3.41854 15.5234
rtibia 72.0284
rfoot -11.9852 -2.18888
rtoes 2.69744
lfemur -7.99043 -0.772423 -30.6136
ltibia 26.978
lfoot -19.9434 -12.1766
ltoes 5.60818
179
root -4.03987 17.0596 5.51166 -83.4657 -78.3161 86.9838
lowerback 9.54384 0.4281 -8.91276
upperback -0.285224 -0.505192 -0.605155
thorax -5.61231 -0.0160999 4.45446
lowerneck -19.3723 -3.48661 -10.5007
upperneck 23.191 -3.36298 5.82611
head 10.991 -1.82211 3.35464
rclavicle 6.06293e-015 1.74931e-014
rhumerus -49.0371 -19.2289 -68.9479
rradius 29.423
rwrist 6.03916
rhand -14.6827 8.77564
rfingers 7.12502
rthumb 11.4707 -20.8905
lclavicle 6.06293e-015 1.74931e-014
lhumerus -27.8169 15.1169 74.3376
lradius 38.4161
lwrist 1.61625
lhand -20.8299 24.6965
lfingers 7.12502
lthumb 5.53857 54.6041
rfemur -36.289 -3.33034 15.9449
rtibia 70.0829
rfoot -12.3449 -3.02218
rtoes 4.40185
lfemur -7.03868 -1.15174 -30.8258
ltibia 26.9238
lfoot -20.0703 -11.6241
ltoes 6.39292
180
root -4.23766 17.055 5.55324 -82.3938 -78.6784 86.1482
lowerback 9.58276 0.244055 -8.7301
upperback -0.322583 -0.718951 -0.397894
thorax -5.6417 -0.118912 4.60226
lowerneck -19.5123 -3.39521 -10.1943
upperneck 23.1332 -3.1965 5.41136
head 10.9683 -1.76564 3.17411
rclavicle 8.64713e-015 8.74653e-015
rhumerus -48.8832 -18.7915 -69.3858
rradius 29.8461
rwrist 6.03674
rhand -14.4805 9.25689
rfingers 7.12502
rthumb 11.6658 -20.3983
lclavicle 8.64713e-015 8.74653e-015
lhumerus -27.7164 14.5024 74.6907
lradius 39.0102
lwrist 2.27615
lhand -21.8382 24.7988
lfingers 7.12502
lthumb 4.56502 54.7296
rfemur -37.564 -2.93037 16.523
rtibia 67.7386
rfoot -12.5526 -3.29178
rtoes 10.4646
lfemur -6.57985 -1.81958 -30.705
ltibia 27.0148
lfoot -20.2063 -11.0112
ltoes 6.94242
181
root -4.42583 17.0591 5.58282 -79.4981 -79.4647 83.6337
lowerback 9.66804 -0.106136 -8.18127
upperback -0.481276 -1.10838 -0.0288195
thorax -5.8023 -0.305431 4.74203
lowerneck -19.5013 -3.24133 -10.0853
upperneck 23.0301 -2.95077 5.19377
head 10.9006 -1.66862 3.11164
rclavicle -2.68359e-015 2.54444e-014
rhumerus -48.727 -18.0418 -70.0282
rradius 30.279
rwrist 5.97194
rhand -15.2062 9.30574
rfingers 7.12502
rthumb 10.9659 -20.3879
lclavicle -2.68359e-015 2.54444e-014
lhumerus -27.7755 14.5022 74.8909
lradius 39.5354
lwrist 2.70245
lhand -21.8816 24.0329
lfingers 7.12502
lthumb 4.5231 53.9646
rfemur -38.8026 -2.47852 17.5173
rtibia 64.9796
rfoot -12.4329 -3.79345
rtoes 14.5908
lfemur -6.3609 -2.04139 -29.9692
ltibia 27.0656
lfoot -20.7179 -10.3326
ltoes 5.25648
